<svg width="207" height="61" viewBox="0 0 207 61" fill="none" xmlns="http://www.w3.org/2000/svg">
<g clip-path="url(#clip0_367_3149)">
<path d="M31.9207 48.7505C42.559 48.7505 51.1831 41.1061 51.1831 31.6762C51.1831 22.2463 42.559 14.6018 31.9207 14.6018C21.2824 14.6018 12.6584 22.2463 12.6584 31.6762C12.6584 41.1061 21.2824 48.7505 31.9207 48.7505Z" fill="white"/>
<path d="M118.057 23.5684V19.4222C119.97 19.1225 121.529 18.3282 122.733 17.0444C123.492 16.2102 124.336 14.7066 125.26 12.5286H129.796C129.207 14.2919 128.697 15.6057 128.267 16.47C127.218 18.6729 125.675 20.3964 123.642 21.6402C122.333 22.4445 120.47 23.0889 118.057 23.5684Z" fill="#F18D00"/>
<path d="M118.057 32.635V28.4938C119.925 28.0842 121.384 27.3848 122.433 26.4007C123.452 25.4466 124.346 23.843 125.125 21.6001H129.796C129.097 24.0778 128.028 26.2558 126.584 28.1441L126.564 29.0683V47.4064H122.348V31.4011C121.359 31.8507 119.93 32.2603 118.062 32.63L118.057 32.635Z" fill="#F18D00"/>
<path d="M133.443 27.7096V24.0129H160.183V27.7096H155.462V41.6218C155.462 42.541 155.378 43.2203 155.213 43.6599C154.788 44.7789 154.119 45.6531 153.205 46.2775C152.245 46.9419 151.281 47.2766 150.307 47.2766H140.301V43.58H148.304C149.108 43.58 149.633 43.5201 149.878 43.4002C150.792 42.9356 151.246 42.2013 151.246 41.2022V27.7096H133.443Z" fill="#F18D00"/>
<path d="M160.183 14.0422H133.782V17.7388H160.183V14.0422Z" fill="#F18D00"/>
<path d="M112.697 14.7716C111.967 14.1571 110.893 13.8474 109.475 13.8474H98.2949C97.0061 13.8474 96.007 14.1821 95.2926 14.8465C94.6332 15.4509 94.3085 16.2202 94.3085 17.1544V26.4209C94.3085 27.4999 94.6782 28.3441 95.4275 28.9586C96.1319 29.533 97.086 29.8228 98.2999 29.8228H110.289C111.168 29.8228 111.972 29.5081 112.702 28.8786C113.416 28.2742 113.776 27.2951 113.776 25.9363V17.1494C113.776 16.1653 113.416 15.366 112.702 14.7666L112.697 14.7716ZM109.714 25.177C109.714 25.9064 109.215 26.271 108.226 26.271H99.5038C98.6995 26.271 98.2999 25.9064 98.2999 25.177V18.5981C98.2999 17.8038 98.6995 17.4042 99.5038 17.4042H108.336C109.255 17.4042 109.719 17.8288 109.719 18.673V25.172L109.714 25.177Z" fill="#F18D00"/>
<path d="M81.9649 25.4417C83.1788 26.7605 84.5625 27.7896 86.1111 28.5239C87.5498 29.2183 89.508 29.7428 91.9907 30.1025V26.6456C89.3131 26.4858 87.0502 25.4417 85.2069 23.5085H91.8658V19.8119H83.973V17.8137H91.8658V14.1121H78.508L78.9876 12.5935H74.8214C74.162 14.3919 73.053 15.5108 71.4895 15.9504V19.8668H71.6793V23.5035H78.3382C76.8296 25.2919 74.5217 26.3559 71.4095 26.7006L71.4295 30.0975C74.4168 29.7228 76.8496 29.0334 78.7378 28.0194C79.7419 27.4749 80.8159 26.6157 81.9599 25.4417H81.9649ZM72.019 19.8069C73.1929 19.4222 74.0571 19.0526 74.6166 18.7079C74.9363 18.5081 75.3609 18.2134 75.8954 17.8287L79.5771 17.8087V19.8069H72.019Z" fill="#F18D00"/>
<path d="M110.539 32.1905C110.054 32.0456 109.24 31.9707 108.096 31.9707H76.6597C73.6475 31.9707 72.1389 33.1746 72.1389 35.5874V44.0247C72.1389 45.0237 72.4686 45.848 73.123 46.5024C73.8673 47.2217 74.9663 47.5814 76.41 47.5814H108.211C109.295 47.5814 110.129 47.4965 110.724 47.3216C111.088 47.2017 111.483 46.957 111.907 46.5823C112.672 45.9129 113.051 44.9038 113.051 43.5451V35.4675C113.051 33.804 112.212 32.71 110.539 32.1905ZM108.805 37.8104H78.8577V41.507H108.805V42.566C108.805 43.0705 108.69 43.4202 108.461 43.605C108.236 43.8049 107.457 43.9048 106.133 43.9048H78.1634C76.9595 43.9048 76.36 43.5251 76.36 42.7658V36.7463C76.36 35.987 76.8446 35.6074 77.8187 35.6074H107.042C108.216 35.6074 108.8 36.022 108.8 36.8462V37.8054L108.805 37.8104Z" fill="#F18D00"/>
<path d="M206.641 17.9536V14.1621H188.038V12.5286H183.822V14.1621H165.288V17.9536H183.822V23.004H165.288V26.7955H171.013C170.114 28.0144 169.135 28.8936 168.071 29.4381C167.252 29.8327 166.108 30.2024 164.649 30.547V34.4635L167.432 33.849V44.0996C167.432 44.9588 167.821 45.7381 168.595 46.4375C169.355 47.1169 170.404 47.4615 171.743 47.4615H201.425C204.572 47.4615 206.146 46.2177 206.146 43.73V32.6002C206.146 31.686 205.766 30.8867 205.002 30.2024C204.258 29.518 203.064 29.1783 201.425 29.1783H174.66C175.249 28.384 175.759 27.5948 176.189 26.8005H206.646V23.009H206.626V20.9808H202.315V23.009H188.038V17.9586H206.641V17.9536ZM199.572 33.0298C200.666 33.0298 201.35 33.1597 201.625 33.4194C201.87 33.6392 201.99 34.1088 201.99 34.8331V36.5116H174.75V40.1183H201.99L202.015 42.1664C202.015 42.7409 201.85 43.1405 201.51 43.3553C201.271 43.5152 200.561 43.6001 199.392 43.6001H174.065C172.837 43.6001 172.127 43.4902 171.947 43.2704C171.748 43.0406 171.653 42.566 171.653 41.8567V41.472H171.638V34.8081H171.653V34.7482C171.653 34.0888 171.728 33.6592 171.882 33.4544C172.082 33.1646 172.827 33.0248 174.115 33.0248H199.582L199.572 33.0298Z" fill="#F18D00"/>
<path d="M23.5185 40.6929C22.1347 36.6965 19.9317 33.0848 17.1043 30.0576C12.9681 34.4936 7.50313 37.6706 1.34378 38.9595C2.6276 43.1057 4.79562 46.8622 7.61303 50.0193C11.7343 45.4035 17.2592 42.0716 23.5185 40.6929Z" fill="#D71618"/>
<path d="M42.8258 30.0576C40.0033 33.0798 37.8004 36.6865 36.4166 40.6779C42.7059 42.0466 48.2508 45.3886 52.387 50.0193C55.2044 46.8622 57.3674 43.1156 58.6512 38.9744C52.4619 37.6956 46.9769 34.5035 42.8258 30.0576Z" fill="#D71618"/>
<path d="M17.1043 30.0576C19.9317 27.0304 22.1347 23.4187 23.5185 19.4224C17.2592 18.0437 11.7343 14.7117 7.61303 10.0959C4.79562 13.2531 2.6276 17.0096 1.34378 21.1558C7.50313 22.4446 12.9681 25.6267 17.1043 30.0576Z" fill="#F3C91E"/>
<path d="M17.1043 30.0576C12.9681 25.6217 7.50312 22.4446 1.34377 21.1558C0.46957 23.9682 0 26.9604 0 30.0576C0 33.1548 0.46957 36.147 1.34377 38.9594C7.50312 37.6706 12.9681 34.4885 17.1043 30.0576Z" fill="#F18D00"/>
<path d="M36.4166 19.4374C37.8004 23.4287 40.0033 27.0354 42.8258 30.0576C46.9769 25.6067 52.4669 22.4196 58.6512 21.1408C57.3624 17.0046 55.2044 13.2531 52.387 10.0959C48.2508 14.7267 42.7009 18.0686 36.4166 19.4374Z" fill="#F3C91E"/>
<path d="M58.6562 21.1357C52.4669 22.4146 46.9819 25.6066 42.8307 30.0526C46.9819 34.5035 52.4719 37.6906 58.6562 38.9694C59.5304 36.152 60.005 33.1547 60.005 30.0526C60.005 26.9504 59.5354 23.9532 58.6562 21.1357Z" fill="#F18D00"/>
<path d="M23.5184 19.4172C25.6065 19.8768 27.7745 20.1265 30.0025 20.1265C32.2305 20.1265 34.3535 19.8818 36.4216 19.4322C35.3526 16.35 34.7631 13.043 34.7631 9.59619C34.7631 6.48903 35.2327 3.49678 36.1119 0.679359C34.1387 0.269735 32.1006 0.0549316 30.0075 0.0549316C27.9144 0.0549316 25.8263 0.27473 23.8332 0.694346C24.7074 3.50677 25.1769 6.49903 25.1769 9.59619C25.1769 13.038 24.5875 16.34 23.5234 19.4172H23.5184Z" fill="#D71618"/>
<path d="M23.5184 19.4172C24.5875 16.34 25.1719 13.038 25.1719 9.59618C25.1719 6.49402 24.7024 3.50676 23.8282 0.694336C17.439 2.03311 11.7992 5.40002 7.61302 10.0907C11.7342 14.7065 17.2592 18.0384 23.5184 19.4172Z" fill="#F18D00"/>
<path d="M36.4166 19.4372C42.7059 18.0685 48.2508 14.7266 52.387 10.0958C48.1858 5.38513 42.521 2.00323 36.1069 0.679443C35.2327 3.49686 34.7581 6.49411 34.7581 9.59627C34.7581 13.0431 35.3476 16.3501 36.4166 19.4323V19.4372Z" fill="#F18D00"/>
<path d="M36.4166 40.6778C34.3485 40.2282 32.2005 39.9834 29.9975 39.9834C27.7945 39.9834 25.6015 40.2332 23.5135 40.6927C24.5825 43.7699 25.1669 47.0719 25.1669 50.5137C25.1669 53.6159 24.6974 56.6032 23.8232 59.4156C25.8163 59.8302 27.8795 60.055 29.9975 60.055C32.1156 60.055 34.1337 59.8402 36.1019 59.4306C35.2277 56.6132 34.7532 53.6159 34.7532 50.5137C34.7532 47.0669 35.3426 43.7599 36.4116 40.6778H36.4166Z" fill="#D2E7D5"/>
<path d="M23.5184 40.6929C17.2592 42.0716 11.7342 45.4036 7.61302 50.0193C11.7992 54.71 17.439 58.0819 23.8282 59.4157C24.7024 56.6033 25.1719 53.611 25.1719 50.5139C25.1719 47.072 24.5825 43.7701 23.5184 40.6929Z" fill="#F18D00"/>
<path d="M36.4166 40.6778C35.3476 43.76 34.7581 47.067 34.7581 50.5138C34.7581 53.621 35.2277 56.6132 36.1069 59.4307C42.521 58.1019 48.1858 54.725 52.387 50.0143C48.2508 45.3835 42.7009 42.0416 36.4166 40.6729V40.6778Z" fill="#F18D00"/>
</g>
<defs>
<clipPath id="clip0_367_3149">
<rect width="206.641" height="60" fill="white" transform="translate(0 0.0549316)"/>
</clipPath>
</defs>
</svg>
